# xmcd
#
# Track frame offsets: 
#        150
#        37125
#        62812
#        98865
#        133727
#        165762
#        196400
#
# Disc length: 3059 seconds
#
# Revision: 4
# Processed by: cddbd v1.5.2PL0 Copyright (c) Steve Scherf et al.
# Submitted via: ExactAudioCopy v0.95a5
#
DISCID=5c0bf107
DTITLE=Eric Gale - Utopia
DYEAR=1998
DGENRE=Fusion
TTITLE0=Utopia
TTITLE1=Just To See Her
TTITLE2=My One And Only Love
TTITLE3=You Don't Know What Love Is
TTITLE4=Lost In Love
TTITLE5=Rising Sun
TTITLE6=When I Fall In Love
EXTD=
EXTT0=
EXTT1=
EXTT2=
EXTT3=
EXTT4=
EXTT5=
EXTT6=
PLAYORDER=
